<svg xmlns="http://www.w3.org/2000/svg" xmlns:xlink="http://www.w3.org/1999/xlink" width="500" zoomAndPan="magnify" viewBox="0 0 375 374.999991" height="500" preserveAspectRatio="xMidYMid meet" version="1.0"><defs><clipPath id="f32a35aa3e"><path d="M 31.117188 38.089844 L 361.867188 38.089844 L 361.867188 337.339844 L 31.117188 337.339844 Z M 31.117188 38.089844 " clip-rule="nonzero"/></clipPath></defs><g clip-path="url(#f32a35aa3e)"><path fill="#ff914d" d="M 312.074219 137.324219 L 298.121094 137.324219 C 244.820312 137.324219 214.894531 113.226562 188.492188 91.96875 C 167.328125 74.921875 138.214844 60.210938 110.714844 60.210938 L 81.625 60.210938 C 66.835938 60.210938 54.089844 71.546875 53.359375 86.320312 C 53.316406 87.246094 53.316406 88.175781 53.363281 89.101562 C 53.414062 90.03125 53.507812 90.953125 53.648438 91.871094 C 53.792969 92.792969 53.980469 93.699219 54.214844 94.597656 C 54.449219 95.5 54.726562 96.382812 55.050781 97.253906 C 55.375 98.125 55.738281 98.980469 56.148438 99.8125 C 56.558594 100.648438 57.011719 101.457031 57.503906 102.246094 C 57.996094 103.035156 58.523438 103.796875 59.09375 104.53125 C 59.664062 105.265625 60.269531 105.96875 60.910156 106.644531 C 61.546875 107.316406 62.222656 107.957031 62.925781 108.5625 C 63.632812 109.167969 64.367188 109.734375 65.128906 110.265625 C 65.890625 110.796875 66.679688 111.289062 67.492188 111.738281 C 68.300781 112.191406 69.136719 112.601562 69.988281 112.96875 C 70.84375 113.335938 71.714844 113.65625 72.601562 113.9375 C 73.488281 114.214844 74.382812 114.449219 75.292969 114.636719 C 76.203125 114.824219 77.121094 114.964844 78.046875 115.0625 C 78.972656 115.15625 79.898438 115.203125 80.828125 115.207031 L 128.042969 115.207031 C 202.773438 115.207031 247.386719 149.394531 247.386719 206.660156 L 247.3125 206.660156 C 247.363281 206.660156 247.386719 206.6875 247.386719 206.738281 L 247.386719 286.238281 C 247.386719 287.945312 247.300781 289.652344 247.125 291.351562 C 246.953125 293.050781 246.699219 294.738281 246.355469 296.414062 C 246.015625 298.089844 245.59375 299.742188 245.085938 301.375 C 244.582031 303.007812 243.996094 304.609375 243.328125 306.183594 C 242.664062 307.757812 241.917969 309.292969 241.097656 310.792969 C 240.28125 312.292969 239.386719 313.75 238.421875 315.160156 C 237.457031 316.570312 236.425781 317.929688 235.324219 319.234375 C 234.222656 320.542969 233.058594 321.792969 231.832031 322.980469 C 230.609375 324.171875 229.324219 325.300781 227.988281 326.363281 C 226.648438 327.425781 225.261719 328.417969 223.824219 329.34375 C 222.386719 330.265625 220.90625 331.117188 219.382812 331.894531 C 217.859375 332.671875 216.304688 333.367188 214.710938 333.988281 C 213.117188 334.609375 211.5 335.148438 209.851562 335.609375 C 208.207031 336.066406 206.542969 336.441406 204.859375 336.734375 C 203.175781 337.027344 201.480469 337.234375 199.773438 337.359375 C 198.070312 337.480469 196.363281 337.519531 194.65625 337.472656 C 166.753906 336.6875 144.871094 313.007812 144.871094 285.070312 L 144.871094 160.871094 C 144.871094 160.148438 144.945312 159.425781 145.085938 158.714844 C 145.226562 158.003906 145.4375 157.3125 145.714844 156.640625 C 145.992188 155.96875 146.332031 155.332031 146.738281 154.726562 C 147.140625 154.125 147.597656 153.566406 148.113281 153.050781 C 148.625 152.539062 149.183594 152.082031 149.789062 151.675781 C 150.390625 151.273438 151.03125 150.933594 151.699219 150.65625 C 152.371094 150.375 153.0625 150.167969 153.773438 150.023438 C 154.488281 149.882812 155.207031 149.8125 155.933594 149.8125 C 156.660156 149.8125 157.378906 149.882812 158.089844 150.023438 C 158.804688 150.167969 159.496094 150.375 160.164062 150.65625 C 160.835938 150.933594 161.472656 151.273438 162.078125 151.675781 C 162.679688 152.082031 163.238281 152.539062 163.753906 153.050781 C 164.265625 153.566406 164.726562 154.125 165.128906 154.726562 C 165.53125 155.332031 165.875 155.96875 166.152344 156.640625 C 166.429688 157.3125 166.640625 158.003906 166.78125 158.714844 C 166.921875 159.425781 166.992188 160.148438 166.992188 160.871094 L 166.992188 285.332031 C 166.992188 302.664062 181.191406 316.660156 198.46875 315.28125 C 199.371094 315.210938 200.265625 315.09375 201.15625 314.9375 C 202.050781 314.78125 202.929688 314.582031 203.804688 314.34375 C 204.675781 314.101562 205.539062 313.824219 206.382812 313.503906 C 207.230469 313.183594 208.0625 312.828125 208.875 312.429688 C 209.691406 312.035156 210.484375 311.601562 211.257812 311.128906 C 212.03125 310.660156 212.78125 310.15625 213.507812 309.613281 C 214.230469 309.074219 214.933594 308.5 215.605469 307.894531 C 216.277344 307.289062 216.921875 306.65625 217.535156 305.988281 C 218.148438 305.324219 218.730469 304.632812 219.28125 303.914062 C 219.828125 303.191406 220.34375 302.449219 220.824219 301.683594 C 221.304688 300.914062 221.75 300.128906 222.15625 299.320312 C 222.5625 298.511719 222.929688 297.683594 223.261719 296.839844 C 223.589844 296 223.878906 295.140625 224.128906 294.273438 C 224.382812 293.402344 224.589844 292.523438 224.757812 291.632812 C 224.925781 290.742188 225.054688 289.847656 225.140625 288.945312 C 225.222656 288.046875 225.265625 287.144531 225.269531 286.238281 L 225.269531 206.738281 C 225.273438 206.6875 225.300781 206.660156 225.351562 206.660156 L 225.269531 206.660156 C 225.269531 146.332031 164.347656 137.324219 128.042969 137.324219 L 81.878906 137.324219 C 54.882812 137.324219 32.035156 116.195312 31.207031 89.210938 C 31.160156 87.554688 31.195312 85.902344 31.3125 84.25 C 31.429688 82.597656 31.628906 80.953125 31.910156 79.320312 C 32.191406 77.6875 32.554688 76.074219 32.996094 74.480469 C 33.4375 72.882812 33.960938 71.3125 34.558594 69.769531 C 35.160156 68.226562 35.835938 66.714844 36.585938 65.238281 C 37.335938 63.761719 38.160156 62.328125 39.054688 60.933594 C 39.949219 59.539062 40.910156 58.191406 41.941406 56.894531 C 42.96875 55.597656 44.0625 54.355469 45.214844 53.164062 C 46.367188 51.976562 47.578125 50.847656 48.84375 49.78125 C 50.113281 48.714844 51.429688 47.710938 52.796875 46.777344 C 54.164062 45.839844 55.574219 44.972656 57.027344 44.179688 C 58.480469 43.386719 59.96875 42.664062 61.492188 42.019531 C 63.019531 41.375 64.574219 40.804688 66.15625 40.316406 C 67.738281 39.824219 69.339844 39.414062 70.964844 39.085938 C 72.585938 38.753906 74.222656 38.507812 75.871094 38.339844 C 77.519531 38.175781 79.171875 38.089844 80.828125 38.089844 L 110.722656 38.089844 C 145.996094 38.089844 179.992188 56.722656 202.375 74.738281 C 227.105469 94.632812 252.621094 115.207031 298.136719 115.207031 L 311.289062 115.207031 C 326.078125 115.207031 338.816406 103.859375 339.546875 89.089844 C 339.59375 88.160156 339.589844 87.234375 339.542969 86.304688 C 339.496094 85.378906 339.398438 84.453125 339.257812 83.535156 C 339.117188 82.617188 338.925781 81.710938 338.695312 80.808594 C 338.460938 79.910156 338.179688 79.027344 337.859375 78.15625 C 337.535156 77.285156 337.167969 76.429688 336.757812 75.597656 C 336.347656 74.761719 335.898438 73.953125 335.40625 73.164062 C 334.914062 72.375 334.382812 71.613281 333.8125 70.878906 C 333.242188 70.144531 332.640625 69.441406 332 68.765625 C 331.359375 68.09375 330.6875 67.453125 329.980469 66.847656 C 329.277344 66.246094 328.542969 65.675781 327.777344 65.144531 C 327.015625 64.613281 326.230469 64.125 325.417969 63.671875 C 324.605469 63.222656 323.769531 62.8125 322.917969 62.445312 C 322.0625 62.078125 321.195312 61.753906 320.308594 61.476562 C 319.421875 61.199219 318.523438 60.964844 317.613281 60.777344 C 316.703125 60.589844 315.785156 60.449219 314.859375 60.351562 C 313.9375 60.257812 313.007812 60.210938 312.082031 60.210938 L 203.789062 60.210938 C 203.0625 60.210938 202.34375 60.140625 201.628906 59.996094 C 200.917969 59.855469 200.226562 59.644531 199.554688 59.367188 C 198.882812 59.089844 198.246094 58.75 197.644531 58.34375 C 197.039062 57.941406 196.480469 57.484375 195.96875 56.96875 C 195.453125 56.457031 194.996094 55.898438 194.59375 55.292969 C 194.1875 54.691406 193.847656 54.054688 193.570312 53.382812 C 193.292969 52.710938 193.082031 52.019531 192.941406 51.308594 C 192.800781 50.59375 192.726562 49.875 192.726562 49.148438 C 192.726562 48.421875 192.800781 47.703125 192.941406 46.992188 C 193.082031 46.28125 193.292969 45.589844 193.570312 44.917969 C 193.847656 44.246094 194.1875 43.609375 194.59375 43.003906 C 194.996094 42.402344 195.453125 41.84375 195.96875 41.328125 C 196.480469 40.816406 197.039062 40.355469 197.644531 39.953125 C 198.246094 39.550781 198.882812 39.210938 199.554688 38.929688 C 200.226562 38.652344 200.917969 38.445312 201.628906 38.300781 C 202.34375 38.160156 203.0625 38.089844 203.789062 38.089844 L 311.019531 38.089844 C 338.019531 38.089844 360.867188 59.21875 361.671875 86.203125 C 361.722656 87.859375 361.6875 89.511719 361.570312 91.164062 C 361.453125 92.816406 361.253906 94.457031 360.972656 96.089844 C 360.691406 97.722656 360.328125 99.335938 359.886719 100.933594 C 359.441406 102.527344 358.921875 104.097656 358.320312 105.640625 C 357.722656 107.183594 357.046875 108.695312 356.296875 110.171875 C 355.546875 111.648438 354.722656 113.082031 353.828125 114.476562 C 352.933594 115.867188 351.972656 117.214844 350.945312 118.511719 C 349.914062 119.808594 348.824219 121.054688 347.671875 122.242188 C 346.519531 123.429688 345.308594 124.558594 344.042969 125.625 C 342.777344 126.691406 341.460938 127.695312 340.09375 128.632812 C 338.730469 129.566406 337.320312 130.433594 335.867188 131.226562 C 334.414062 132.023438 332.925781 132.742188 331.402344 133.390625 C 329.875 134.035156 328.324219 134.601562 326.742188 135.09375 C 325.160156 135.585938 323.558594 135.996094 321.933594 136.324219 C 320.3125 136.65625 318.675781 136.90625 317.03125 137.074219 C 315.382812 137.238281 313.730469 137.324219 312.074219 137.324219 Z M 312.074219 137.324219 " fill-opacity="1" fill-rule="nonzero"/></g></svg>