<svg xmlns="http://www.w3.org/2000/svg" viewBox="0 0 1536 751" preserveAspectRatio="xMidYMid" width="1536" height="751" style="shape-rendering: auto; display: block; background: rgb(255, 255, 255);"><g data-idx="1"><linearGradient id="lg-0.6590519274487807" x1="0" x2="0.5" y1="0" y2="0" gradientUnits="objectBoundingBox" data-idx="2">
  <stop stop-color="#193f55" offset="0" data-idx="3"></stop>
  <stop stop-color="#38728e" offset="1" data-idx="4"></stop>
</linearGradient><path d="M -731.506 751 Q -667.434 623.374 -665.616 485.681 T -471.777 235.781 T -161.253 15.8245 T 247.91 -161.407 T 731.931 -285.612 T 1262.68 -349.574 T 1809.32 -349.574 T 2340.07 -285.612 T 2824.09 -161.407 T 3233.25 15.8245 T 3543.78 235.781 T 3737.62 485.681 T 3803.51 751" fill="url(#lg-0.6590519274487807)" opacity="0.9" data-idx="5">
  
</path><path d="M -504.755 751 Q -432.727 624.853 -435.218 492.753 T -231.346 252.104 T 92.9681 45.4551 T 515.622 -113.113 T 1007.81 -212.792 T 1536 -246.791 T 2064.19 -212.792 T 2556.38 -113.113 T 2979.03 45.4551 T 3303.35 252.104 T 3507.22 492.753 T 3576.76 751" fill="url(#lg-0.6590519274487807)" opacity="0.9" data-idx="7">
  
</path><path d="M -278.005 751 Q -207.692 626.181 -204.525 501.124 T 9.96211 271.492 T 348.08 80.7064 T 782.435 -55.7758 T 1277.84 -126.898 T 1794.16 -126.898 T 2289.56 -55.7758 T 2723.92 80.7064 T 3062.04 271.492 T 3276.52 501.124 T 3350 751" fill="url(#lg-0.6590519274487807)" opacity="0.9" data-idx="9">
  
</path><path d="M -51.2541 751 Q 101.974 632.012 26.4316 511.184 T 251.884 294.844 T 603.035 123.154 T 1045.51 12.9233 T 1536 -25.0598 T 2026.49 12.9233 T 2468.96 123.154 T 2820.12 294.844 T 3045.57 511.184 T 3123.25 751" fill="url(#lg-0.6590519274487807)" opacity="0.9" data-idx="11">
  
</path><path d="M 175.496 751 Q 242.872 626.714 279.059 496.441 T 573.979 280.637 T 1015.36 136.441 T 1536 85.8059 T 2056.64 136.441 T 2498.02 280.637 T 2792.94 496.441 T 2896.5 751" fill="url(#lg-0.6590519274487807)" opacity="0.9" data-idx="13">
  
</path><path d="M 402.247 751 Q 463.853 640.713 514.524 510.486 T 829.117 317.609 T 1283.72 210.57 T 1788.28 210.57 T 2242.88 317.609 T 2557.48 510.486 T 2669.75 751" fill="url(#lg-0.6590519274487807)" opacity="0.9" data-idx="15">
  
</path><path d="M 628.998 751 Q 792.266 640.748 750.513 529.269 T 1082.5 366.95 T 1536 307.537 T 1989.5 366.95 T 2321.49 529.269 T 2443 751" fill="url(#lg-0.6590519274487807)" opacity="0.9" data-idx="17">
  
</path><path d="M 855.748 751 Q 1001.42 641.565 1054.99 515.818 T 1536 418.403 T 2017.01 515.818 T 2216.25 751" fill="url(#lg-0.6590519274487807)" opacity="0.9" data-idx="19">
  
</path><path d="M 1082.5 751 Q 1205.58 643.565 1309.25 558.975 T 1762.75 558.975 T 1989.5 751" fill="url(#lg-0.6590519274487807)" opacity="0.9" data-idx="21">
  
</path><path d="M 1309.25 751 Q 1443.1 701.593 1536 640.134 T 1762.75 751" fill="url(#lg-0.6590519274487807)" opacity="0.9" data-idx="23">
  
</path><g data-idx="25"></g></g></svg>